PathFileType	4	(X/Y/Z)	0_coords_data.trc
DataRate	CameraRate	NumFrames	NumMarkers	Units	OrigDataRate	OrigDataStartFrame	OrigNumFrames
30.0	30.0	6	21	m	30.0	21	72
Frame#	Time	THUMB_TIP	THUMB_IP	THUMB_MCP	THUMB_CMC	INDEX_TIP	INDEX_DIP	INDEX_PIP	INDEX_MCP	MIDDLE_TIP	MIDDLE_DIP	MIDDLE_PIP	MIDDLE_MCP	RING_TIP	RING_DIP	RING_PIP	RING_MCP	PINKY_TIP	PINKY_DIP	PINKY_PIP	PINKY_MCP	WRIST
X1	Y1	Z1	X2	Y2	Z2	X3	Y3	Z3	X4	Y4	Z4	X5	Y5	Z5	X6	Y6	Z6	X7	Y7	Z7	X8	Y8	Z8	X9	Y9	Z9	X10	Y10	Z10	X11	Y11	Z11	X12	Y12	Z12	X13	Y13	Z13	X14	Y14	Z14	X15	Y15	Z15	X16	Y16	Z16	X17	Y17	Z17	X18	Y18	Z18	X19	Y19	Z19	X20	Y20	Z20	X21	Y21	Z21
19	0.6666666666666637	0.48851675523382276	-0.02152738048028502	-0.16922451099332492	0.49369103720352814	-0.02184205207880896	-0.1468386273189406	0.4785206147548057	-0.027863994725986996	-0.12033552392553781	0.4779176655946128	-0.026389252187900225	-0.07575580222657952	0.4973441616459089	-0.014409330770305373	-0.0991540445652555	0.5150249113669243	-0.015005372721896948	-0.10303164992098152	0.5295714628906778	0.0003710108315341243	-0.11659536993374187	0.492798541885325	0.021848463281236685	-0.1169231061155247	0.4999684987861045	-0.015832012757303393	-0.08559819227405185	0.5176168386126812	-0.011963748681939501	-0.08685223948564896	0.5368349581528964	0.007488581442281261	-0.09693590370439059	0.5005744611596414	0.03358652170929577	-0.09646495506440578	0.4991742596281836	-0.005849607122416556	-0.07304345482841851	0.5169882348233099	-0.007169009036180007	-0.07061004850448072	0.5379569540189463	0.005488415861838791	-0.07511364587164954	0.5114761430381936	0.03603487400924721	-0.07448010151624618	0.5038225379637817	-0.009840278443639217	-0.055951191392438204	0.5209271317791186	-0.010484024629047517	-0.05581531916896798	0.5372666409175242	0.002690498988449419	-0.05530113285255672	0.5139058402975731	0.029813604511687686	-0.05088597802286143	0.462283081001861	-0.023011742144276925	-0.05198982011943093
20	0.6999999999999968	0.48850149548017596	-0.02157965146793861	-0.16924421475565588	0.4936720338793418	-0.02187725700762211	-0.1468572327436583	0.47850702415363344	-0.027882234996558952	-0.1203471833402423	0.4779002729285551	-0.02638107597424355	-0.07576839494777265	0.49731491876006995	-0.014375560602838622	-0.09922189543932763	0.5150030724393567	-0.014999793717141219	-0.10306110791546685	0.52953985025772	0.00037065239951217244	-0.11664202503599302	0.4927518535897396	0.021822373686974372	-0.11696303743716946	0.49995073169378723	-0.01583972587541127	-0.08559849077806514	0.5175952850721202	-0.011961202983893693	-0.08687395001266812	0.5368119251285108	0.007487809197109008	-0.0969668296872866	0.5005436154169397	0.03357507264996795	-0.09650605077426544	0.49910063573363617	-0.005922716496965297	-0.07301332809899552	0.5169282885313586	-0.007144908766494984	-0.07062983449083088	0.5379170652999568	0.00547302384711823	-0.0751507863061327	0.5114548521389599	0.03603574093102291	-0.07452434151911802	0.5038062093928821	-0.009821217209250999	-0.0559508790692787	0.5209111191725142	-0.01046683540032567	-0.05587850102010339	0.5372651405838232	0.0026885057268423163	-0.05533535968832898	0.513906189170656	0.029814075981717925	-0.050925566243607445	0.4622830810018609	-0.023011742144276925	-0.051989820119430985
21	0.7333333333333302	0.48849559129192777	-0.021657556223145025	-0.16925567624230503	0.49365680567081416	-0.021933451605800958	-0.14686626472987335	0.4784896364832917	-0.02793857993129012	-0.12035748481393838	0.4778834456948058	-0.02636994358595557	-0.075781012177086	0.49729562916790504	-0.014378207372988894	-0.0992523868534953	0.5149844569349908	-0.015005633014349873	-0.1030879714622529	0.5295209902552488	0.0003460674593332991	-0.1166903361315062	0.49272202830756673	0.021779039422276436	-0.11700689009015303	0.49993892752978153	-0.015833749451226287	-0.08564181254360609	0.5175860345250685	-0.011965373495144482	-0.08691275005556326	0.5368014122553421	0.007483977288877619	-0.09700738044815144	0.5005181953994542	0.03355071631986817	-0.09655881397721111	0.4990540710681052	-0.006008770699563404	-0.07301740853541422	0.5168904400831056	-0.007124146829505018	-0.07064678067564922	0.5378914781299794	0.005463946056524116	-0.07519390036249063	0.5114351783304771	0.03603197748144049	-0.07457706187131213	0.5037954263031132	-0.009715606009286892	-0.05593837236533106	0.5208963511999568	-0.010462110016444148	-0.05590521456362829	0.5372555966975576	0.002687194085714051	-0.05537332418188845	0.5139021497421108	0.029818946137274427	-0.05097241553573495	0.4622830810018609	-0.023011742144276925	-0.05198982011943104
22	0.7666666666666633	0.48850154707293736	-0.021712198346533595	-0.16926778886384197	0.4936611623190953	-0.02197203038661899	-0.14687781660341798	0.47849260606757404	-0.02797706144200729	-0.12036980831784017	0.47786487049043536	-0.026352494068595744	-0.07579563722185184	0.4972625632906208	-0.014400012461711409	-0.09927275779617323	0.514948838365069	-0.015018871872229278	-0.1031214831723164	0.5294982902928711	0.0003189491244217635	-0.11672569313376835	0.4926854936777578	0.02172789321715851	-0.11705917807853689	0.4999261363840124	-0.015848619995470936	-0.08568990111695463	0.5175723502778935	-0.01197556281348211	-0.08695898081360198	0.5367918854929135	0.007464689868946328	-0.09706321714110083	0.5004941300998831	0.03351142746404079	-0.09662924124311817	0.49905175813139957	-0.0059982593363168135	-0.07319430759734363	0.5168690069167123	-0.007124197773122121	-0.07068873214272342	0.5378765312791804	0.005448028994037735	-0.0752497641833278	0.51142007226201	0.03601627886073999	-0.07465083984783938	0.5037887121210676	-0.009656320709144572	-0.0559763886107425	0.520887717265209	-0.01044621930823264	-0.05596726261608481	0.5372527303826771	0.0026957804405499664	-0.055432279188213474	0.5138963368673417	0.029825819265839937	-0.051036448630166265	0.4622830810018609	-0.023011742144276925	-0.05198982011943104
23	0.7999999999999965	0.48849485189274444	-0.021756461920676595	-0.16927864391527808	0.4936465757232794	-0.022011686308705092	-0.14688680160416723	0.4784767708881923	-0.028019736322523525	-0.12038019193229815	0.4778437527001226	-0.026369658053550182	-0.07580703263570093	0.49722611784233395	-0.014431100849314538	-0.0992850705154863	0.5149072285509066	-0.015025158819596096	-0.10316133408226535	0.5294521169829912	0.0003082774485999584	-0.1167753630857376	0.49262515221955716	0.021692800153792713	-0.1171114419215663	0.4999223473268347	-0.015839194509934873	-0.0857369772418996	0.5175742705307674	-0.01199186157923926	-0.08700490331342137	0.5367710069739373	0.007472416720062269	-0.09710622650490547	0.5004552108029732	0.03349419351102445	-0.09668432354173079	0.4990576769330022	-0.005952648696044505	-0.07339441836583377	0.5168482106100514	-0.007111938665850914	-0.07071991686991275	0.5378572286428814	0.005457735938924735	-0.0752811031877787	0.5113946585122677	0.03602092112436217	-0.07469379798346992	0.5038061841978185	-0.00955451426921039	-0.05595515761533487	0.5209012572677671	-0.010425366656297674	-0.055945521588253055	0.5372584153778763	0.002728162238103682	-0.05545554691029725	0.5138815649640067	0.02984066958141829	-0.051060292505114346	0.4622830810018609	-0.023011742144276925	-0.05198982011943093
24	0.8333333333333297	0.4885181492113151	-0.02172876734437812	-0.1692700686985788	0.49365582393482954	-0.021987937352491604	-0.14687504404259205	0.4784733402959519	-0.02801382547813558	-0.12037974516048011	0.4778435363190915	-0.02637782255830534	-0.07580602149510712	0.49722275984387954	-0.014481228550408787	-0.099270683160119	0.5148967645508398	-0.015028249080832223	-0.10318607920108885	0.5294475436803276	0.00030776707127555536	-0.11679090438582201	0.49260792222144545	0.02167035289478403	-0.11713486906351639	0.49994237579321577	-0.015830319688057704	-0.08578681657087334	0.5176006705379959	-0.012010696986855751	-0.08704979286793285	0.536788122884706	0.007469693182932224	-0.09713768765701347	0.5004552918495078	0.03346771104836743	-0.09671771499570103	0.49904999867550315	-0.00594859543988735	-0.07343298580203922	0.5168411323537259	-0.0071070076275698835	-0.07076209762634916	0.5378635093386461	0.0054426072995888974	-0.07531696426368673	0.5113998686816432	0.03600476608518144	-0.07472450536953806	0.5038183141828317	-0.00958051994725928	-0.055973809909010686	0.5209156711013454	-0.010405116101037337	-0.05595313180159828	0.537290230970219	0.0027281138531739524	-0.055501380685954005	0.513898441229168	0.02982465476572793	-0.05108718831534437	0.4622830810018608	-0.023011742144276925	-0.051989820119430985
